<svg id="b1a6beb8-da4a-4fd8-96bc-92a9bf68d087" data-name="Layer 1" xmlns="http://www.w3.org/2000/svg" viewBox="0 0 1435.45 489.59"><title>peak</title><path d="M485.77,539.78C483.36,535.34,371,329.58,371,329.58V303h66.18a9.63,9.63,0,0,0,7-16.43L422.43,264.5l21.64-21.92A9.85,9.85,0,0,0,447,235a9.57,9.57,0,0,0-9.49-9H361.62a9.62,9.62,0,0,0-9.62,9.62v93.95L283.6,455,254,404.18a10.93,10.93,0,0,0-8.32-5.18h0a10.94,10.94,0,0,0-8.32,5.22L159.75,539.59A9.62,9.62,0,0,0,168.09,554H477.32a9.62,9.62,0,0,0,8.45-14.22ZM371,245h43.57l-12.29,12.28a9.51,9.51,0,0,0,0,13.44L414.57,283H371Zm-9.18,107.13,42.29,77.77-13.79,20.29-20.78-27.71a9.63,9.63,0,0,0-15.4,0l-20.78,27.71-13.95-20.52ZM184.7,535l61.08-106.5,27,46.52L240,535ZM262,535,309,448.89l15.86,23.36a9.94,9.94,0,0,0,4.21,3.58,9.66,9.66,0,0,0,11.56-3.06l21.17-28.23L383,472.77a9.61,9.61,0,0,0,7.7,3.85h.22a9.66,9.66,0,0,0,7.74-4.22l15.78-23.23L461.13,535Z" transform="translate(-158.47 -195.23)" fill="#fff"/><path d="M672.78,229q69.74,0,107.1,24.52t37.35,80.33q0,56.25-37.8,81.22t-108,25h-22v104.4h-70.2V237.08a397.16,397.16,0,0,1,48.6-6.3Q653.43,229,672.78,229Zm4.5,59.85q-7.66,0-15.08.45t-12.82.9v90h22q36.45,0,54.9-9.9t18.45-36.9q0-13-4.73-21.6a36,36,0,0,0-13.5-13.73,61,61,0,0,0-21.37-7.2A176.75,176.75,0,0,0,677.28,288.83Z" transform="translate(-158.47 -195.23)" fill="#fff"/><path d="M846.48,427.88q0-31.5,9.67-55.13t25.43-39.37a105.65,105.65,0,0,1,36.22-23.85,113.45,113.45,0,0,1,42.08-8.1q50.39,0,79.65,30.82t29.25,90.68c0,3.9-.16,8.18-.45,12.82s-.61,8.78-.9,12.38H915.33q2.24,20.7,19.35,32.85t45.9,12.15a193.79,193.79,0,0,0,36.22-3.38q17.78-3.37,29-8.32l9,54.45a93,93,0,0,1-14.4,5.4,189.16,189.16,0,0,1-20,4.72q-11,2-23.62,3.38a236.66,236.66,0,0,1-25.2,1.35q-32,0-55.58-9.45T876.85,515.4a102.6,102.6,0,0,1-23-38.92A154.19,154.19,0,0,1,846.48,427.88ZM1004,402.23a69.71,69.71,0,0,0-2.93-16.65,41.57,41.57,0,0,0-7.65-14.4,40.73,40.73,0,0,0-13-10.35q-7.87-4.05-19.57-4.05-11.26,0-19.35,3.82a40.13,40.13,0,0,0-13.5,10.13,45.39,45.39,0,0,0-8.33,14.62,96.23,96.23,0,0,0-4.27,16.88Z" transform="translate(-158.47 -195.23)" fill="#fff"/><path d="M1205.58,301.43q29.7,0,49.5,6.75t31.72,19.35a71.23,71.23,0,0,1,16.88,30.6,151.35,151.35,0,0,1,5,40.05v139.5q-14.42,3.15-40.05,7.42t-62.1,4.28a196.93,196.93,0,0,1-41.63-4q-18.67-4.05-32.17-13.28A60.59,60.59,0,0,1,1112,508q-7.21-14.85-7.2-36.45,0-20.7,8.32-35.1a64,64,0,0,1,22.28-22.95,100.72,100.72,0,0,1,31.95-12.38,179.77,179.77,0,0,1,37.35-3.82,214.72,214.72,0,0,1,23.17,1.12,104.53,104.53,0,0,1,16.43,2.93V395q0-17.1-10.35-27.45t-36-10.35a230.4,230.4,0,0,0-33.75,2.47,145.28,145.28,0,0,0-28.8,7l-8.55-54q5.84-1.8,14.62-3.83t19.13-3.6q10.34-1.56,21.82-2.7T1205.58,301.43Zm5.4,196.2q9.88,0,18.9-.45a131.75,131.75,0,0,0,14.4-1.35V445q-4-.9-12.15-1.8a132.51,132.51,0,0,0-32.63.22,46.59,46.59,0,0,0-14.62,4.28,25,25,0,0,0-9.9,8.55c-2.41,3.6-3.6,8.1-3.6,13.5q0,15.75,10.57,21.82T1211,497.63Z" transform="translate(-158.47 -195.23)" fill="#fff"/><path d="M1436.42,392.73q9.9-10.74,20.46-22.37t20.45-23q9.9-11.42,18.65-21.7t15.07-17.89h79.72q-23.85,27.4-46.57,52.31t-49.73,51.41a309.28,309.28,0,0,1,27.9,29.08q14.4,16.91,27.9,34.94t24.75,36q11.25,18,18.9,32.91h-77.09q-7.2-11.73-16.4-25.94t-19.54-28.41q-10.34-14.2-21.78-27.29a183.55,183.55,0,0,0-22.69-22.11V544.43h-67.05V206l67.05-10.8Z" transform="translate(-158.47 -195.23)" fill="#fff"/><path d="M583,663V582.63h48.48v9.62H594.23V616.5h33.06V626H594.23v37Z" transform="translate(-158.47 -195.23)" fill="#fff"/><path d="M668.93,664.17q-10-.23-14.15-4.29t-4.18-12.64V574.85L661.39,573v72.5a17.48,17.48,0,0,0,.46,4.41,6.06,6.06,0,0,0,1.51,2.78,6.52,6.52,0,0,0,2.79,1.57,30.91,30.91,0,0,0,4.29.87Z" transform="translate(-158.47 -195.23)" fill="#fff"/><path d="M681.69,674.27a21.24,21.24,0,0,0,3.31,1.1,15.86,15.86,0,0,0,4,.52q6.38,0,10-2.84t6.5-9.22q-7.31-13.92-13.63-29.53a256.13,256.13,0,0,1-10.5-31.61h11.6q1.27,5.22,3.08,11.26t4,12.41q2.21,6.38,4.75,12.76t5.34,12.3q4.41-12.2,7.66-24.13t6.14-24.6h11.14q-4.17,17.05-9.28,32.77t-11,29.41a62.37,62.37,0,0,1-4.81,9,27.52,27.52,0,0,1-5.51,6.21,20.24,20.24,0,0,1-6.79,3.59,29.09,29.09,0,0,1-8.53,1.16,22.5,22.5,0,0,1-2.66-.17c-.93-.12-1.84-.27-2.73-.47s-1.7-.4-2.44-.63a14.36,14.36,0,0,1-1.56-.58Z" transform="translate(-158.47 -195.23)" fill="#fff"/><path d="M837,582.63h11.25V663H837V625.89H797.69V663H786.44V582.63h11.25v33.52H837Z" transform="translate(-158.47 -195.23)" fill="#fff"/><path d="M879.12,591.79a6.93,6.93,0,0,1-4.93-1.91,7.59,7.59,0,0,1,0-10.33,7.32,7.32,0,0,1,9.86,0,7.59,7.59,0,0,1,0,10.33A7,7,0,0,1,879.12,591.79ZM884.57,663H873.78V602.69h10.79Z" transform="translate(-158.47 -195.23)" fill="#fff"/><path d="M947.21,657a29.17,29.17,0,0,1-5.39,2.38,27.35,27.35,0,0,1-9.34,1.45,30,30,0,0,1-10.27-1.74,22.36,22.36,0,0,1-8.41-5.39,26,26,0,0,1-5.68-9.11,36.33,36.33,0,0,1-2.09-13,35.83,35.83,0,0,1,2-12.12,27,27,0,0,1,5.74-9.52,26.52,26.52,0,0,1,9.23-6.26,31.75,31.75,0,0,1,12.29-2.26,69.63,69.63,0,0,1,13.17,1.1c3.75.74,6.9,1.41,9.45,2v53.83q0,13.9-7.19,20.18t-21.81,6.26a59.21,59.21,0,0,1-10.73-.93,62,62,0,0,1-8.76-2.2l2-9.4a50.35,50.35,0,0,0,7.94,2.27,48.11,48.11,0,0,0,9.8,1q9.63,0,13.87-3.83t4.23-12.18Zm-.12-44.77a35.1,35.1,0,0,0-4.35-.87,52.34,52.34,0,0,0-7.36-.41q-8.7,0-13.4,5.68t-4.7,15.08a26.55,26.55,0,0,0,1.34,8.94,17.48,17.48,0,0,0,3.59,6.14,14,14,0,0,0,5.22,3.6,16.59,16.59,0,0,0,6.09,1.16,24.27,24.27,0,0,0,7.89-1.22,19.36,19.36,0,0,0,5.68-2.84Z" transform="translate(-158.47 -195.23)" fill="#fff"/><path d="M982.7,663V574.85L993.49,573v30.85a38.17,38.17,0,0,1,13.23-2.43,30.6,30.6,0,0,1,11.94,2,18.68,18.68,0,0,1,7.6,5.68,21.91,21.91,0,0,1,4,8.76,50.37,50.37,0,0,1,1.16,11.25V663h-10.78V631.46a51.68,51.68,0,0,0-.76-9.51,16,16,0,0,0-2.49-6.38,10,10,0,0,0-4.64-3.54,20.51,20.51,0,0,0-7.19-1.1,30,30,0,0,0-3.6.23c-1.24.16-2.42.33-3.54.52s-2.13.41-3,.64a19,19,0,0,0-1.92.58V663Z" transform="translate(-158.47 -195.23)" fill="#fff"/><path d="M1066.57,649.79a14.07,14.07,0,0,1,.12,1.8v1.8a49.93,49.93,0,0,1-2.15,14.44,65.11,65.11,0,0,1-5.86,13.63l-8.35-2.67a41.47,41.47,0,0,0,3.83-12,75.8,75.8,0,0,0,.93-11.42c0-1,0-2-.06-2.9s-.1-1.82-.17-2.67Z" transform="translate(-158.47 -195.23)" fill="#fff"/><path d="M1145.1,581.81q16.94,0,26,6.44t9.11,19.2a26,26,0,0,1-2.5,11.89,20.28,20.28,0,0,1-7.19,8,32.86,32.86,0,0,1-11.42,4.47,75.32,75.32,0,0,1-15.2,1.39H1135V663h-11.25V583.79a62.55,62.55,0,0,1,10.61-1.57C1138.28,582,1141.85,581.81,1145.1,581.81Zm.93,9.86q-7.2,0-11,.35v31.55h8.47a65.94,65.94,0,0,0,10.44-.75,23.56,23.56,0,0,0,7.83-2.55,12.63,12.63,0,0,0,4.93-4.93,16.39,16.39,0,0,0,1.74-8,14.73,14.73,0,0,0-1.8-7.65,13.63,13.63,0,0,0-4.87-4.82,21.16,21.16,0,0,0-7.14-2.49A51.22,51.22,0,0,0,1146,591.67Z" transform="translate(-158.47 -195.23)" fill="#fff"/><path d="M1217.13,601.19a31.36,31.36,0,0,1,11,1.68,17.19,17.19,0,0,1,11.08,12.06,35.51,35.51,0,0,1,1.15,9.34V662l-3.88.64q-2.49.4-5.63.75c-2.08.23-4.35.45-6.78.64s-4.86.29-7.25.29a40,40,0,0,1-9.4-1,21,21,0,0,1-7.42-3.31,15.15,15.15,0,0,1-4.87-6,21,21,0,0,1-1.74-8.94,17.23,17.23,0,0,1,2-8.58,16.3,16.3,0,0,1,5.51-5.8,25.59,25.59,0,0,1,8.13-3.25,44.6,44.6,0,0,1,9.74-1c1.08,0,2.2.06,3.36.17s2.26.27,3.31.47,2,.36,2.73.52,1.31.27,1.62.35v-3a24.06,24.06,0,0,0-.58-5.28,12.1,12.1,0,0,0-2.09-4.64,10.65,10.65,0,0,0-4.12-3.25,16.17,16.17,0,0,0-6.78-1.21,51.25,51.25,0,0,0-9.34.75,32.65,32.65,0,0,0-6,1.57l-1.27-8.94a33.84,33.84,0,0,1,7-1.79A60.14,60.14,0,0,1,1217.13,601.19Zm.93,54q3.84,0,6.79-.17a30.06,30.06,0,0,0,4.93-.64v-18a14,14,0,0,0-3.77-1,42.12,42.12,0,0,0-6.32-.4,39.24,39.24,0,0,0-5.16.35,15.64,15.64,0,0,0-5,1.45,10.62,10.62,0,0,0-3.77,3,7.91,7.91,0,0,0-1.51,5c0,3.87,1.24,6.55,3.71,8.06S1213.81,655.24,1218.06,655.24Z" transform="translate(-158.47 -195.23)" fill="#fff"/><path d="M1255.65,674.27a21.44,21.44,0,0,0,3.3,1.1,15.94,15.94,0,0,0,4,.52q6.38,0,10-2.84t6.5-9.22q-7.32-13.92-13.63-29.53a254.46,254.46,0,0,1-10.5-31.61h11.6q1.27,5.22,3.07,11.26t4,12.41q2.21,6.38,4.76,12.76t5.34,12.3q4.4-12.2,7.65-24.13t6.15-24.6H1309q-4.18,17.05-9.28,32.77t-11,29.41a62.35,62.35,0,0,1-4.82,9,27.28,27.28,0,0,1-5.51,6.21,20.1,20.1,0,0,1-6.78,3.59,29.14,29.14,0,0,1-8.53,1.16,22.8,22.8,0,0,1-2.67-.17c-.93-.12-1.84-.27-2.72-.47s-1.71-.4-2.44-.63a13.92,13.92,0,0,1-1.57-.58Z" transform="translate(-158.47 -195.23)" fill="#fff"/><path d="M1408.76,653.27V663h-48.37V582.63h11.25v70.64Z" transform="translate(-158.47 -195.23)" fill="#fff"/><path d="M1421.41,633a38.46,38.46,0,0,1,2.32-14,29,29,0,0,1,6.15-9.92,25,25,0,0,1,8.81-5.91,27.46,27.46,0,0,1,10.21-2q12.18,0,18.68,7.59t6.49,23.15v1.79a17.88,17.88,0,0,1-.11,2h-41.3q.69,9.4,5.45,14.27t14.85,4.87a39.45,39.45,0,0,0,9.57-1,35.85,35.85,0,0,0,5.86-1.91l1.51,9a32.3,32.3,0,0,1-6.91,2.21,49.15,49.15,0,0,1-11.19,1.16,35.61,35.61,0,0,1-13.63-2.38,25.36,25.36,0,0,1-9.45-6.56,26.54,26.54,0,0,1-5.51-9.91A42,42,0,0,1,1421.41,633Zm41.41-5.92q.12-7.31-3.65-12a12.61,12.61,0,0,0-10.39-4.7,14.17,14.17,0,0,0-6.55,1.45,15.33,15.33,0,0,0-4.81,3.77,17.43,17.43,0,0,0-3.08,5.34,26.49,26.49,0,0,0-1.45,6.14Z" transform="translate(-158.47 -195.23)" fill="#fff"/><path d="M1509.92,655.24q6.6,0,9.8-1.74a5.89,5.89,0,0,0,3.19-5.57,7.4,7.4,0,0,0-3.14-6.26,49.41,49.41,0,0,0-10.32-5.22c-2.32-.93-4.54-1.87-6.67-2.84a23.65,23.65,0,0,1-5.51-3.42,14.94,14.94,0,0,1-3.71-4.76,15.19,15.19,0,0,1-1.39-6.84,15.39,15.39,0,0,1,5.91-12.71q5.93-4.7,16.13-4.69a43.6,43.6,0,0,1,5.1.29c1.7.19,3.29.42,4.76.69s2.76.56,3.88.87,2,.58,2.61.81l-2,9.28a28.11,28.11,0,0,0-5.45-1.91,35.06,35.06,0,0,0-8.93-1,16.47,16.47,0,0,0-7.89,1.8,6,6,0,0,0-3.36,5.63,7.74,7.74,0,0,0,.75,3.48,8,8,0,0,0,2.32,2.72,18.74,18.74,0,0,0,3.89,2.27c1.54.69,3.4,1.43,5.56,2.2,2.86,1.08,5.41,2.15,7.66,3.19a24,24,0,0,1,5.74,3.65,14.16,14.16,0,0,1,3.65,5.05,18.3,18.3,0,0,1,1.28,7.25q0,8.35-6.21,12.64t-17.68,4.3a46.13,46.13,0,0,1-12.53-1.34,63.37,63.37,0,0,1-6.15-2l2-9.28c1.24.47,3.21,1.16,5.92,2.09A34,34,0,0,0,1509.92,655.24Z" transform="translate(-158.47 -195.23)" fill="#fff"/><path d="M1567.92,655.24q6.6,0,9.8-1.74a5.89,5.89,0,0,0,3.19-5.57,7.42,7.42,0,0,0-3.13-6.26,49.81,49.81,0,0,0-10.33-5.22c-2.32-.93-4.54-1.87-6.67-2.84a23.65,23.65,0,0,1-5.51-3.42,14.94,14.94,0,0,1-3.71-4.76,15.19,15.19,0,0,1-1.39-6.84,15.39,15.39,0,0,1,5.91-12.71q5.93-4.7,16.13-4.69a43.6,43.6,0,0,1,5.1.29c1.7.19,3.29.42,4.76.69s2.76.56,3.88.87,2,.58,2.61.81l-2,9.28a28.11,28.11,0,0,0-5.45-1.91,35.06,35.06,0,0,0-8.93-1,16.47,16.47,0,0,0-7.89,1.8,6,6,0,0,0-3.36,5.63,7.74,7.74,0,0,0,.75,3.48,8.06,8.06,0,0,0,2.32,2.72,18.74,18.74,0,0,0,3.89,2.27c1.54.69,3.4,1.43,5.56,2.2,2.86,1.08,5.42,2.15,7.66,3.19a23.83,23.83,0,0,1,5.74,3.65,14.18,14.18,0,0,1,3.66,5.05,18.31,18.31,0,0,1,1.27,7.25q0,8.35-6.2,12.64t-17.69,4.3a46.13,46.13,0,0,1-12.53-1.34,63.37,63.37,0,0,1-6.15-2l2-9.28c1.24.47,3.21,1.16,5.92,2.09A34,34,0,0,0,1567.92,655.24Z" transform="translate(-158.47 -195.23)" fill="#fff"/></svg>