<svg id="Layer_1" data-name="Layer 1" xmlns="http://www.w3.org/2000/svg" viewBox="0 0 1480.53 480.37"><defs><style>.cls-1,.cls-2{fill:#fff;}.cls-2{font-size:450px;font-family:Ubuntu-Bold, Ubuntu;font-weight:700;letter-spacing:-0.01em;}.cls-3{letter-spacing:0em;}</style></defs><title>peak</title><path class="cls-1" d="M485.77,539.78C483.36,535.34,371,329.58,371,329.58V303h66.18a9.63,9.63,0,0,0,7-16.43L422.43,264.5l21.64-21.92A9.85,9.85,0,0,0,447,235a9.57,9.57,0,0,0-9.49-9H361.62a9.62,9.62,0,0,0-9.62,9.62v93.95L283.6,455,254,404.18a10.93,10.93,0,0,0-8.32-5.18h0a10.94,10.94,0,0,0-8.32,5.22L159.75,539.59A9.62,9.62,0,0,0,168.09,554H477.32a9.62,9.62,0,0,0,8.45-14.22ZM371,245h43.57l-12.29,12.28a9.51,9.51,0,0,0,0,13.44L414.57,283H371Zm-9.18,107.13,42.29,77.77-13.79,20.29-20.78-27.71a9.63,9.63,0,0,0-15.4,0l-20.78,27.71-13.95-20.52ZM184.7,535l61.08-106.5,27,46.52L240,535ZM262,535,309,448.89l15.86,23.36a9.94,9.94,0,0,0,4.21,3.58,9.66,9.66,0,0,0,11.56-3.06l21.17-28.23L383,472.77a9.61,9.61,0,0,0,7.7,3.85h.22a9.66,9.66,0,0,0,7.74-4.22l15.78-23.23L461.13,535Z" transform="translate(-158.47 -169.51)"/><text class="cls-2" transform="translate(384.71 380.92)">P<tspan class="cls-3" x="283.05" y="0">eak</tspan></text></svg>